<svg xmlns="http://www.w3.org/2000/svg" xmlns:xlink="http://www.w3.org/1999/xlink" width="1380" zoomAndPan="magnify" viewBox="0 0 1035 782.249981" height="1043" preserveAspectRatio="xMidYMid meet" version="1.0"><defs><clipPath id="836206c75b"><path d="M 0.496094 0 L 1034.503906 0 L 1034.503906 781.5 L 0.496094 781.5 Z M 0.496094 0 " clip-rule="nonzero"/></clipPath><clipPath id="0f8ea78d2b"><path d="M 0.496094 1 L 56 1 L 56 55 L 0.496094 55 Z M 0.496094 1 " clip-rule="nonzero"/></clipPath><clipPath id="5fbc4d31d5"><path d="M 979 726 L 1034.496094 726 L 1034.496094 780 L 979 780 Z M 979 726 " clip-rule="nonzero"/></clipPath><clipPath id="c3fe866363"><path d="M 1007 469.039062 L 1027 469.039062 L 1027 514 L 1007 514 Z M 1007 469.039062 " clip-rule="nonzero"/></clipPath></defs><g clip-path="url(#836206c75b)"><path fill="#ffffff" d="M 0.496094 0 L 1034.503906 0 L 1034.503906 781.5 L 0.496094 781.5 Z M 0.496094 0 " fill-opacity="1" fill-rule="nonzero"/><path fill="#d1c8d5" d="M 0.496094 0 L 1034.503906 0 L 1034.503906 781.5 L 0.496094 781.5 Z M 0.496094 0 " fill-opacity="1" fill-rule="nonzero"/></g><path fill="#000000" d="M 18.214844 120.117188 C 17.367188 109.996094 14.175781 100.03125 16.398438 89.222656 C 15.753906 89.917969 15.363281 90.191406 15.179688 90.570312 C 8.957031 103.851562 6.953125 117.605469 11.765625 131.6875 C 13.46875 136.671875 16.945312 141.019531 19.164062 145.859375 C 20.757812 149.332031 21.660156 153.128906 22.765625 156.808594 C 23.273438 158.488281 22.164062 159.277344 20.734375 159.777344 C 17.433594 160.9375 13.625 159.691406 11.285156 156.449219 C 6.21875 149.421875 4.082031 141.335938 3.738281 132.859375 C 3.128906 117.804688 6.160156 103.421875 12.902344 89.902344 C 13.777344 88.152344 14.4375 86.078125 17.105469 86.015625 C 17.652344 86 18.164062 84.550781 18.691406 83.769531 C 22.214844 78.566406 25.109375 72.75 29.394531 68.285156 C 37.242188 60.105469 50.269531 59.6875 58.972656 66.398438 C 65.480469 71.414062 66.003906 81.21875 60.070312 86.921875 C 57.191406 89.691406 52.007812 90.296875 48.390625 88.285156 C 45.34375 86.589844 43.21875 81.835938 44.453125 78.117188 C 45.019531 76.40625 46.632812 74.5 48.242188 73.832031 C 50.402344 72.941406 53.0625 73.003906 54.941406 75.167969 C 55.503906 75.816406 55.992188 76.519531 56.5625 77.25 C 57.480469 73.726562 55.144531 69.992188 51.277344 69.050781 C 45.28125 67.585938 39.863281 68.753906 35.527344 73.375 C 26.0625 83.46875 24.863281 107.726562 39.273438 117.957031 C 43.535156 120.980469 48.144531 122.71875 53.457031 122.085938 C 60.5 121.25 65.683594 114.027344 63.371094 108.167969 C 62.945312 107.078125 62.144531 106.136719 61.4375 104.996094 C 61.039062 105.4375 60.835938 105.566406 60.808594 105.71875 C 60.371094 108.160156 60.015625 110.65625 56.847656 111.03125 C 53.917969 111.382812 50.3125 109.382812 48.859375 106.628906 C 47.5 104.039062 47.957031 100.664062 49.96875 98.460938 C 52.929688 95.21875 56.679688 94.960938 60.433594 96.273438 C 70.148438 99.679688 73.726562 107.859375 70.179688 118.484375 C 67.148438 127.570312 58.734375 132.542969 48.601562 131.699219 C 47.9375 131.644531 47.261719 131.601562 46.5 131.550781 C 46.210938 134.832031 45.929688 138.039062 45.582031 142.046875 C 41 137.199219 37.167969 132.9375 33.101562 128.910156 C 28.933594 124.773438 25.21875 120.390625 23.714844 114.53125 C 21.714844 116.496094 19.929688 118.246094 18.144531 119.996094 Z M 18.214844 120.117188 " fill-opacity="1" fill-rule="nonzero"/><path fill="#000000" d="M 102.21875 95.515625 C 101.382812 95.710938 100.5 95.789062 99.730469 96.128906 C 98.503906 96.660156 96.507812 97.195312 96.339844 98.035156 C 95.945312 99.980469 95.226562 101.945312 97.214844 104.109375 C 108.039062 115.855469 118.257812 128.105469 125.101562 142.75 C 128.003906 148.953125 130.539062 155.332031 129.621094 162.398438 C 129.339844 164.566406 128.648438 166.796875 127.644531 168.730469 C 125.5625 172.738281 120.457031 173.265625 117.375 169.9375 C 114.023438 166.324219 113.113281 161.730469 112.46875 157.066406 C 111.375 149.164062 110.765625 141.167969 109.148438 133.375 C 106.984375 122.964844 102.398438 113.519531 95.847656 105.082031 C 94.820312 103.757812 94.054688 103.074219 92.28125 103.78125 C 91.238281 104.195312 89.90625 103.855469 88.421875 103.855469 C 94.046875 109.773438 98.0625 116.601562 100.78125 124.167969 C 104.699219 135.082031 107.25 146.246094 105.371094 157.933594 C 105 160.269531 104.03125 162.609375 102.863281 164.683594 C 101.265625 167.527344 98.828125 168.320312 95.925781 167.527344 C 92.75 166.660156 90.894531 164.796875 91.152344 161.441406 C 91.617188 155.449219 92.101562 149.382812 93.496094 143.566406 C 96.578125 130.6875 94.511719 118.71875 88.855469 107.007812 C 87.617188 104.433594 87.363281 101.375 86.699219 98.53125 C 86.328125 96.9375 86.257812 95.226562 85.625 93.75 C 85.339844 93.066406 84.019531 92.835938 83.171875 92.394531 C 82.941406 93.242188 82.367188 94.164062 82.535156 94.933594 C 82.964844 96.914062 84.503906 98.976562 84.175781 100.742188 C 83.558594 104.058594 85.632812 106.191406 86.460938 108.871094 C 90.273438 121.121094 91.988281 133.480469 86.136719 145.570312 C 84.863281 148.199219 82.445312 150.589844 79.980469 152.207031 C 78.542969 153.152344 75.789062 152.792969 73.988281 152.082031 C 73.257812 151.792969 72.914062 148.8125 73.414062 147.417969 C 75.109375 142.691406 77.191406 138.101562 79.269531 133.515625 C 80.917969 129.894531 83.320312 126.523438 84.371094 122.761719 C 85.386719 119.125 85.5625 115.089844 85.296875 111.285156 C 84.972656 106.585938 83.550781 105.71875 77.679688 105.355469 C 78.457031 106.773438 78.894531 108.011719 79.707031 108.90625 C 80.523438 109.808594 81.722656 110.363281 82.457031 111.359375 C 76.859375 111.675781 73.695312 108.386719 72.613281 104.882812 C 70.441406 97.835938 72.675781 88.757812 78.3125 86.652344 C 82.585938 85.058594 84.253906 82.582031 86.003906 78.785156 C 88.757812 72.8125 97.636719 70.273438 104.367188 72.585938 C 108.285156 73.929688 111.640625 75.738281 112.566406 80.472656 C 110.050781 80.0625 107.675781 79.683594 104.605469 79.183594 C 105.574219 81.371094 106.175781 82.734375 106.878906 84.332031 C 102.777344 85.789062 98.953125 85.339844 95.121094 84.144531 C 94.382812 83.910156 93.628906 83.496094 92.921875 83.566406 C 92.394531 83.617188 91.679688 84.25 91.53125 84.761719 C 91.425781 85.128906 92.007812 86.015625 92.464844 86.175781 C 94.105469 86.757812 95.792969 87.265625 97.503906 87.5625 C 102.605469 88.449219 103.765625 90.359375 102.191406 95.53125 Z M 102.21875 95.515625 " fill-opacity="1" fill-rule="nonzero"/><path fill="#000000" d="M 113.820312 16.015625 C 109.714844 16.015625 105.601562 16.015625 101.496094 16.015625 C 101.433594 15.710938 101.378906 15.402344 101.3125 15.101562 C 102.671875 14.691406 104.011719 14.171875 105.398438 13.898438 C 122.445312 10.558594 136.628906 21.175781 143.507812 31.648438 C 145.589844 34.8125 147.4375 38.140625 149.238281 41.480469 C 151.585938 45.839844 154.804688 49.160156 159.484375 50.960938 C 160.066406 51.1875 160.550781 51.691406 161.242188 52.183594 C 157.050781 55.046875 153.136719 53.667969 149.101562 52.050781 C 146.976562 56.25 145.597656 60.941406 141.140625 63.285156 C 139.570312 64.113281 137.8125 64.570312 135.75 64.867188 C 140.574219 58.523438 143.003906 51.75 141.425781 44.371094 C 137.953125 45.003906 134.46875 45.644531 131.253906 46.226562 C 131.253906 48.832031 131.652344 51.9375 131.175781 54.90625 C 129.773438 63.664062 120.535156 71.449219 111.691406 71.8125 C 100.773438 72.265625 96.96875 66.238281 95.660156 57.257812 C 95.183594 54 96.515625 51.566406 99.386719 49.992188 C 102.421875 48.332031 105.761719 47.886719 108.460938 49.976562 C 109.945312 51.125 110.824219 53.71875 110.992188 55.742188 C 111.1875 58.101562 109.890625 60.25 107.394531 61.222656 C 106.6875 61.496094 105.960938 61.722656 105.238281 61.96875 C 105.125 62.257812 105.015625 62.539062 104.902344 62.828125 C 106.324219 63.515625 107.675781 64.5625 109.175781 64.824219 C 114.898438 65.828125 120.996094 60.765625 121.207031 54.859375 C 121.507812 46.363281 118.285156 39.582031 110.722656 35.433594 C 98.785156 28.882812 86.613281 28.476562 74.714844 35.382812 C 66.53125 40.136719 65.132812 50.757812 71.457031 56.828125 C 73.847656 59.113281 75.929688 59.40625 78.941406 57.671875 C 75.886719 56.425781 73.800781 54.414062 73.40625 51.179688 C 73.019531 47.992188 74.78125 45.089844 77.273438 44.390625 C 80.988281 43.367188 85.578125 45.371094 87.222656 48.726562 C 90.125 54.652344 86.1875 65.097656 77.351562 65.011719 C 71.492188 64.957031 67.28125 62.53125 64.285156 57.761719 C 58.691406 48.871094 61.054688 36.796875 69.726562 28.976562 C 76.117188 23.214844 83.832031 20.488281 92.109375 19.285156 C 98.238281 18.390625 104.453125 18.039062 110.625 17.429688 C 111.734375 17.324219 112.832031 17.152344 113.933594 17.011719 C 113.898438 16.695312 113.863281 16.359375 113.820312 16.015625 Z M 141.222656 42.597656 C 137.355469 30.707031 130.699219 22.148438 119.328125 17.820312 C 118.601562 17.546875 117.269531 17.679688 116.777344 18.179688 C 115.132812 19.863281 113.742188 21.796875 112.414062 23.441406 C 115.160156 24.761719 118.027344 25.664062 120.296875 27.367188 C 123.460938 29.734375 126.273438 32.613281 129.066406 35.441406 C 132.359375 38.746094 136.066406 41.226562 141.222656 42.597656 Z M 141.222656 42.597656 " fill-opacity="1" fill-rule="nonzero"/><path fill="#000000" d="M 262.0625 31.339844 C 266.132812 31.691406 270.199219 32.042969 274.269531 32.394531 C 274.324219 32.738281 274.386719 33.078125 274.445312 33.421875 C 272.34375 35.179688 270.207031 36.886719 268.152344 38.695312 C 264.65625 41.785156 261.300781 45.027344 257.746094 48.035156 C 253.402344 51.722656 248.132812 53.238281 241.980469 53.824219 C 245.78125 56.988281 250.9375 58.191406 251.574219 64.613281 C 246.277344 61.460938 241.128906 61.785156 235.914062 61.898438 C 230.21875 62.023438 224.4375 62.050781 218.816406 61.257812 C 208.734375 59.828125 199.605469 55.742188 191.808594 49.105469 C 189.046875 46.753906 186.832031 43.757812 184.375 41.058594 C 184.546875 40.839844 184.730469 40.621094 184.90625 40.40625 C 185.367188 40.566406 185.90625 40.621094 186.273438 40.910156 C 194.433594 47.347656 204.027344 49.421875 214.0625 49.878906 C 224.605469 50.347656 234.75 48.605469 244.175781 43.535156 C 252.226562 39.195312 256.136719 32.050781 257.433594 23.363281 C 258.363281 17.140625 254.152344 12.609375 248.511719 12.988281 C 249.003906 14.777344 249.941406 16.605469 249.898438 18.40625 C 249.824219 21.402344 248.03125 23.421875 245.015625 24.1875 C 242.15625 24.910156 238.515625 23.617188 236.691406 21.203125 C 233.519531 17 234.050781 11.5625 238.003906 7.777344 C 245.976562 0.15625 259.5625 3.363281 263.3125 13.945312 C 264.417969 17.070312 264.550781 20.53125 265.210938 24.277344 C 266 23.152344 266.710938 22.082031 267.488281 21.0625 C 276.566406 9.199219 287.195312 4.472656 300.9375 7.566406 C 306.382812 8.792969 310.789062 11.546875 311.917969 17.46875 C 312.226562 19.09375 311.542969 21.351562 310.5 22.675781 C 309.140625 24.398438 306.84375 24.277344 304.875 23.210938 C 303.171875 22.28125 301.460938 21.332031 299.886719 20.214844 C 291.304688 14.109375 282.503906 14.480469 274.03125 20.007812 C 269.484375 22.976562 265.617188 26.984375 261.441406 30.523438 C 261.644531 30.789062 261.851562 31.066406 262.0625 31.339844 Z M 262.0625 31.339844 " fill-opacity="1" fill-rule="nonzero"/><g clip-path="url(#0f8ea78d2b)"><path fill="#000000" d="M 0.820312 36.851562 C 2.847656 33.289062 5.824219 31.5625 9.496094 30.945312 C 13.804688 30.222656 17.792969 31.070312 21.335938 33.738281 C 21.800781 34.089844 22.234375 34.523438 22.757812 34.742188 C 23.957031 35.242188 25.191406 35.65625 26.445312 35.988281 C 26.5 36.003906 27.207031 34.695312 27.003906 34.34375 C 26.234375 32.976562 25.429688 31.480469 24.230469 30.550781 C 23.339844 29.863281 21.835938 29.898438 20.59375 29.730469 C 13.523438 28.757812 8.90625 24.96875 6.953125 17.992188 C 5.558594 13.023438 4.058594 8.09375 2.453125 2.617188 C 9.628906 4.558594 17.082031 4.65625 23.011719 8.917969 C 25.535156 10.734375 26.886719 14.296875 28.511719 17.21875 C 29.542969 19.066406 30.046875 21.199219 30.878906 23.167969 C 31.839844 25.417969 33.695312 26.136719 36.519531 26.121094 C 35.847656 24.769531 35.273438 23.808594 34.875 22.765625 C 33.5625 19.332031 31.917969 15.957031 31.160156 12.398438 C 30.09375 7.414062 31.988281 4.148438 36.5 1.570312 C 36.640625 1.6875 36.90625 1.816406 36.90625 1.933594 C 36.78125 9.78125 42.441406 13.625 47.632812 17.921875 C 50.058594 19.925781 52.308594 22.308594 54.058594 24.917969 C 55.78125 27.484375 56.316406 30.726562 54.378906 33.484375 C 52.292969 36.464844 48.992188 37.085938 45.539062 36.832031 C 44.691406 36.769531 43.855469 36.488281 43.785156 36.472656 C 41.355469 38.738281 39.332031 40.628906 37.144531 42.664062 C 37.144531 44.519531 37.601562 46.925781 37.046875 49.070312 C 35.902344 53.5 31.792969 55.644531 27.273438 54.746094 C 23.171875 53.929688 20.496094 51.164062 17.988281 48.128906 C 16.195312 45.953125 14.367188 43.808594 12.570312 41.636719 C 10.078125 38.617188 7.105469 36.691406 2.972656 37.339844 C 2.59375 37.394531 2.195312 37.332031 1.808594 37.28125 C 1.640625 37.261719 1.472656 37.140625 0.820312 36.851562 Z M 0.820312 36.851562 " fill-opacity="1" fill-rule="nonzero"/></g><path fill="#000000" d="M 166.15625 16.816406 C 165.316406 12.933594 166.347656 9.894531 170.046875 8.636719 C 171.9375 7.988281 174.347656 7.492188 176.105469 8.109375 C 178.851562 9.078125 181.488281 10.761719 183.722656 12.679688 C 187.105469 15.585938 189.867188 19.226562 193.328125 22.007812 C 195.972656 24.125 199.132812 26.03125 202.359375 26.875 C 207.6875 28.265625 212.78125 23.390625 212.546875 17.828125 C 212.402344 14.332031 209.726562 13.019531 206.984375 11.6875 C 210.3125 10.226562 213.738281 12.300781 215.015625 16.359375 C 216.933594 22.449219 213.453125 29.714844 206.972656 31.832031 C 203.308594 33.027344 199.257812 33.042969 195.058594 33.632812 C 195.058594 35.039062 195.058594 36.921875 195.058594 39.117188 C 190.554688 37.597656 186.328125 36.285156 182.195312 34.707031 C 181.125 34.300781 180.210938 33.183594 179.484375 32.203125 C 178.210938 30.496094 177.3125 28.46875 175.902344 26.894531 C 174.585938 25.417969 172.96875 24.019531 171.203125 23.195312 C 168.386719 21.878906 164.855469 23.519531 163.628906 26.269531 C 162.359375 29.109375 163.199219 31.691406 166.359375 33.28125 C 168.40625 34.308594 170.703125 34.882812 172.941406 35.460938 C 177.675781 36.691406 181.9375 38.421875 184.117188 43.371094 C 184.796875 44.914062 186.160156 46.15625 187.429688 47.824219 C 185.636719 48.542969 184.058594 49.175781 182.355469 49.855469 C 182.503906 50.40625 182.519531 50.914062 182.75 51.292969 C 187.984375 59.894531 180.921875 68.859375 173.597656 70.449219 C 168.398438 71.574219 165.121094 69.753906 163.867188 65.378906 C 165.878906 66.097656 168.316406 67.550781 170.851562 67.742188 C 175.285156 68.066406 178.3125 64.148438 177.65625 59.648438 C 177.207031 56.609375 175.8125 54.035156 173.144531 52.496094 C 170.808594 51.144531 168.28125 50.117188 165.792969 49.046875 C 163.03125 47.859375 160.152344 46.953125 157.453125 45.636719 C 152.339844 43.148438 150.476562 39.152344 151.925781 33.898438 C 152.296875 32.554688 153.039062 30.613281 154.050781 30.277344 C 156.992188 29.308594 157.308594 27.035156 157.757812 24.65625 C 158.613281 20.101562 161.316406 17.433594 166.15625 16.816406 Z M 166.15625 16.816406 " fill-opacity="1" fill-rule="nonzero"/><path fill="#000000" d="M 63.058594 163.335938 C 66.0625 161.71875 68.347656 162.195312 70.238281 164.234375 C 73.546875 167.800781 74.703125 172.078125 72.957031 176.65625 C 71.234375 181.175781 67.542969 183.316406 62.769531 183.652344 C 58.210938 183.976562 53.914062 183.113281 49.765625 180.542969 C 49.527344 183.457031 49.3125 186.078125 49.074219 188.90625 C 42.445312 184.417969 35.761719 180.550781 34.078125 172.078125 C 33.734375 170.339844 32.585938 168.695312 31.554688 167.1875 C 30.125 165.105469 28.074219 164.59375 25.664062 165.445312 C 23.28125 166.289062 22.363281 167.992188 22.566406 170.425781 C 22.832031 173.554688 23.714844 176.597656 26.519531 178.1875 C 32.257812 181.4375 36.347656 185.945312 38.730469 192.101562 C 39.171875 193.230469 40.074219 194.1875 41.007812 195.582031 C 37.707031 195.582031 34.710938 195.582031 31.429688 195.582031 C 31.710938 197.375 32.199219 198.976562 32.171875 200.566406 C 32.101562 203.9375 32.234375 207.425781 31.421875 210.644531 C 29.988281 216.335938 23.804688 219.914062 18.03125 219.007812 C 12.5625 218.144531 8.820312 211.308594 11.714844 206.65625 C 12.078125 208.324219 12.351562 209.703125 12.6875 211.0625 C 13.640625 214.941406 15.820312 217.335938 18.523438 217.515625 C 22.363281 217.769531 26.421875 215.160156 27.578125 211.484375 C 29.59375 205.054688 27.09375 199.792969 22.824219 195.277344 C 19.695312 191.964844 16.167969 189.035156 12.777344 185.972656 C 8.351562 181.972656 6.554688 177.148438 8.097656 171.261719 C 9.09375 167.464844 11.707031 165.527344 15.601562 165.207031 C 16.582031 165.128906 17.746094 164.390625 18.398438 163.601562 C 20.234375 161.367188 22.222656 159.601562 25.160156 158.902344 C 26.1875 158.65625 27.28125 157.632812 27.855469 156.667969 C 30.871094 151.609375 36.664062 150.617188 40.824219 154.84375 C 42.84375 156.898438 44.457031 159.390625 46.046875 161.824219 C 48.863281 166.132812 51.273438 170.734375 54.300781 174.882812 C 57.902344 179.820312 64.597656 180.636719 68.683594 177.140625 C 71.164062 175.023438 72 172.457031 71.269531 169.304688 C 70.546875 166.191406 68.496094 164.507812 65.503906 163.835938 C 64.832031 163.6875 64.179688 163.566406 63.058594 163.335938 Z M 63.058594 163.335938 " fill-opacity="1" fill-rule="nonzero"/><path fill="#000000" d="M 34.769531 278.835938 C 31.8125 275.820312 31.484375 273.351562 32.613281 263.589844 C 31.429688 263.890625 30.363281 264.175781 29.296875 264.425781 C 24.085938 265.664062 18.921875 265.882812 13.945312 263.472656 C 7.488281 260.339844 4.433594 252.660156 6.988281 245.917969 C 8.179688 242.78125 10.351562 240.613281 13.785156 240.289062 C 17.394531 239.945312 20.519531 241.0625 22.585938 244.269531 C 24.519531 247.273438 23.796875 250.109375 20.695312 251.910156 C 19.699219 252.484375 18.65625 252.976562 17.617188 253.519531 C 20.6875 257.746094 26.441406 259.011719 31.980469 256.457031 C 40.550781 252.511719 45.847656 245.578125 48.390625 236.675781 C 52.925781 220.800781 50.773438 205.667969 42.597656 191.367188 C 42.070312 190.449219 41.519531 189.53125 41.46875 188.089844 C 43.746094 190.292969 46.210938 192.339844 48.28125 194.730469 C 59.203125 207.398438 63.980469 222.207031 63.398438 238.90625 C 63.230469 243.714844 62.621094 248.652344 65.453125 253.476562 C 62.441406 253.597656 60.527344 252.167969 58.929688 250.4375 C 57.339844 248.714844 56.058594 246.695312 54.410156 244.503906 C 53.808594 250.960938 50.527344 255.789062 46.78125 260.417969 C 42.148438 266.09375 36.90625 271.367188 34.769531 278.835938 Z M 34.769531 278.835938 " fill-opacity="1" fill-rule="nonzero"/><path fill="#000000" d="M 98.542969 98.601562 C 112.949219 112.378906 130.808594 121.304688 146.035156 133.753906 C 149.453125 136.546875 152.605469 139.800781 155.308594 143.296875 C 156.886719 145.335938 157.628906 148.191406 158.226562 150.800781 C 159.570312 156.640625 156.480469 158.242188 151.183594 157.96875 C 146.453125 157.722656 142.339844 155.367188 139.378906 151.75 C 134.710938 146.054688 130.261719 140.152344 126.078125 134.089844 C 118.132812 122.570312 110.300781 110.988281 100.214844 101.171875 C 99.734375 100.699219 99.320312 100.152344 98.933594 99.601562 C 98.730469 99.3125 98.667969 98.933594 98.542969 98.601562 Z M 98.542969 98.601562 " fill-opacity="1" fill-rule="nonzero"/><path fill="#000000" d="M 102.175781 95.5625 C 103.078125 95.621094 104.285156 95.320312 104.84375 95.78125 C 118.464844 107.050781 134.257812 111.746094 151.699219 111.902344 C 156.105469 111.9375 160.539062 112.640625 164.90625 113.367188 C 166.425781 113.617188 167.960938 114.652344 169.195312 115.6875 C 172.84375 118.738281 172.554688 124.238281 168.414062 126.515625 C 166.214844 127.726562 163.503906 128.410156 160.980469 128.558594 C 151.886719 129.089844 143.632812 126.121094 135.777344 121.785156 C 123.195312 114.828125 112.390625 105.59375 102.230469 95.515625 C 102.214844 95.515625 102.175781 95.5625 102.175781 95.5625 Z M 102.175781 95.5625 " fill-opacity="1" fill-rule="nonzero"/><path fill="#000000" d="M 105.578125 91.722656 C 110.398438 92.695312 115.210938 93.699219 120.046875 94.628906 C 128.578125 96.269531 136.820312 94.292969 145.09375 92.589844 C 148.792969 91.828125 152.535156 91.050781 156.285156 90.859375 C 158.917969 90.71875 161.707031 91.230469 164.25 92.027344 C 167.691406 93.109375 168.722656 96.445312 166.878906 99.558594 C 164.453125 103.667969 160.398438 105.242188 156.074219 106.269531 C 149.417969 107.859375 142.746094 107.273438 136.140625 106.007812 C 125.820312 104.023438 116.367188 99.839844 107.601562 94.074219 C 106.753906 93.511719 105.992188 92.816406 105.183594 92.183594 C 105.316406 92.027344 105.449219 91.878906 105.578125 91.722656 Z M 105.578125 91.722656 " fill-opacity="1" fill-rule="nonzero"/><path fill="#000000" d="M 2.085938 77.257812 C 1.773438 73.503906 3.742188 70.757812 8.027344 67.601562 C 7.125 67.222656 6.03125 67.054688 5.351562 66.433594 C 1.660156 63.050781 0.539062 58.867188 1.660156 53.972656 C 2.261719 51.355469 4.152344 50.320312 6.410156 49.886719 C 9.464844 49.289062 12.203125 50.074219 14.230469 52.59375 C 15.765625 54.507812 15.484375 56.636719 14.503906 58.632812 C 14.171875 59.300781 13.277344 59.828125 12.527344 60.117188 C 11.40625 60.554688 10.179688 60.738281 8.722656 61.089844 C 10.460938 63.269531 12.300781 64.878906 14.949219 64.246094 C 19.367188 63.191406 23.6875 61.785156 28.066406 60.597656 C 32.074219 59.511719 36.070312 58.316406 40.148438 57.566406 C 43.320312 56.980469 46.304688 58.078125 48.949219 60.089844 C 46.769531 59.964844 44.589844 59.722656 42.410156 59.738281 C 36.144531 59.78125 31.03125 62.796875 26.433594 66.625 C 22.195312 70.15625 17.402344 72.011719 12.105469 73.226562 C 8.734375 74.007812 5.589844 75.808594 2.085938 77.257812 Z M 2.085938 77.257812 " fill-opacity="1" fill-rule="nonzero"/><path fill="#000000" d="M 18.148438 120.019531 C 21.25 130.210938 33.828125 144.796875 49.363281 143.671875 C 51.953125 143.480469 54.496094 142.179688 56.976562 141.167969 C 58.273438 140.640625 59.386719 139.640625 60.699219 138.777344 C 60.949219 143.253906 59.058594 145.289062 50.609375 150.167969 C 51.03125 153.917969 51.429688 157.460938 51.828125 161.007812 C 51.507812 161.105469 51.175781 161.203125 50.855469 161.300781 C 50.425781 161.015625 49.824219 160.832031 49.601562 160.429688 C 46.503906 154.894531 41.667969 151.167969 36.527344 147.804688 C 28.171875 142.339844 21.257812 135.519531 16.4375 126.707031 C 13.355469 121.058594 12.003906 114.890625 11.660156 108.511719 C 11.574219 106.910156 11.96875 105.277344 12.148438 103.601562 C 14.210938 109.230469 16.207031 114.667969 18.203125 120.109375 C 18.21875 120.117188 18.148438 120.019531 18.148438 120.019531 Z M 18.148438 120.019531 " fill-opacity="1" fill-rule="nonzero"/><path fill="#000000" d="M 58.136719 49.167969 C 55.796875 45.960938 55.300781 42.535156 56.328125 39.097656 C 58.050781 33.328125 60.105469 27.667969 61.953125 21.9375 C 63.363281 17.582031 62.914062 13.558594 59.441406 9.804688 C 58.816406 10.867188 58.347656 11.773438 57.78125 12.601562 C 55.949219 15.269531 53.980469 15.597656 51.375 13.730469 C 48.320312 11.542969 47.289062 7.230469 49.167969 4.445312 C 51.460938 1.042969 57.113281 0.015625 60.632812 2.617188 C 62.472656 3.980469 63.9375 5.851562 65.296875 7.210938 C 68.78125 6.027344 72.050781 4.917969 75.332031 3.796875 C 75.476562 4.078125 75.625 4.367188 75.773438 4.648438 C 75.414062 5.140625 74.996094 5.605469 74.707031 6.140625 C 73.683594 8.054688 71.976562 9.945312 71.847656 11.929688 C 71.457031 17.949219 69.171875 23.027344 65.535156 27.617188 C 60.554688 33.90625 56.082031 40.355469 58.136719 49.167969 Z M 58.136719 49.167969 " fill-opacity="1" fill-rule="nonzero"/><path fill="#000000" d="M 105.003906 87.0625 C 106.085938 86.933594 107.171875 86.675781 108.25 86.71875 C 118.621094 87.109375 127.890625 84.101562 136.234375 77.925781 C 140.011719 75.125 144.046875 72.863281 149.105469 73.601562 C 151.214844 73.910156 152.082031 74.726562 152.054688 76.960938 C 151.992188 81.589844 149.527344 84.65625 145.882812 86.851562 C 140.78125 89.925781 135.070312 90.964844 129.199219 91.300781 C 121.574219 91.746094 114.113281 90.796875 106.792969 88.699219 C 106.125 88.511719 105.539062 88.023438 104.914062 87.671875 C 104.941406 87.46875 104.976562 87.265625 105.003906 87.0625 Z M 105.003906 87.0625 " fill-opacity="1" fill-rule="nonzero"/><path fill="#000000" d="M 27.332031 268.429688 C 26.332031 269.589844 25.308594 270.730469 24.320312 271.902344 C 18.023438 279.359375 15.605469 287.539062 19.242188 297.082031 C 20.296875 299.859375 20.957031 302.875 21.257812 305.84375 C 21.488281 308.074219 21.425781 310.769531 18.5625 311.652344 C 15.878906 312.484375 13.257812 311.210938 11.757812 308.433594 C 8.421875 302.25 8.359375 295.613281 10.097656 289.105469 C 12.453125 280.300781 17.988281 273.613281 25.433594 268.492188 C 25.867188 268.191406 26.4375 268.085938 26.941406 267.886719 C 27.074219 268.0625 27.199219 268.246094 27.332031 268.429688 Z M 27.332031 268.429688 " fill-opacity="1" fill-rule="nonzero"/><path fill="#000000" d="M 192.421875 40.269531 C 193.367188 40.269531 194.371094 40.074219 195.257812 40.300781 C 205.917969 43.070312 214.617188 39.835938 222.214844 32.132812 C 224.054688 30.261719 226.976562 29.371094 229.535156 28.34375 C 231.335938 27.617188 232.464844 28.730469 232.820312 30.578125 C 233.5 34.089844 232.472656 37.226562 229.5625 39.039062 C 226.410156 41.007812 222.9375 42.851562 219.355469 43.660156 C 211.207031 45.503906 202.980469 45.285156 194.984375 42.421875 C 194.039062 42.085938 193.179688 41.523438 192.273438 41.074219 C 192.308594 40.796875 192.363281 40.539062 192.421875 40.269531 Z M 192.421875 40.269531 " fill-opacity="1" fill-rule="nonzero"/><path fill="#000000" d="M 185.359375 51.804688 C 186.921875 52.601562 188.511719 53.332031 190.035156 54.203125 C 197.160156 58.296875 204.003906 62.734375 206.996094 70.984375 C 207.773438 73.136719 208.308594 75.484375 208.371094 77.757812 C 208.46875 81.335938 205.726562 83.164062 202.484375 81.660156 C 200.851562 80.902344 199.101562 79.5 198.328125 77.925781 C 196.765625 74.734375 195.695312 71.273438 194.664062 67.847656 C 193.019531 62.382812 191.238281 57.074219 185.949219 53.921875 C 185.5 53.65625 185.21875 53.105469 184.863281 52.691406 C 185.03125 52.402344 185.199219 52.109375 185.359375 51.804688 Z M 185.359375 51.804688 " fill-opacity="1" fill-rule="nonzero"/><path fill="#000000" d="M 40.125 197.945312 C 41.308594 201.433594 42.585938 204.167969 43.152344 207.050781 C 44.582031 214.289062 44.699219 221.554688 41.878906 228.550781 C 40.203125 232.707031 37.519531 235.84375 32.753906 236.597656 C 30.511719 236.949219 29.054688 235.921875 29.390625 233.855469 C 29.789062 231.378906 30.367188 228.460938 31.949219 226.722656 C 39.171875 218.789062 40.863281 209.5625 39.347656 199.359375 C 39.320312 199.21875 39.507812 199.046875 40.125 197.945312 Z M 40.125 197.945312 " fill-opacity="1" fill-rule="nonzero"/><path fill="#000000" d="M 50.121094 185.476562 C 51.277344 186.339844 51.84375 186.59375 52.152344 187.027344 C 56.449219 193.121094 63.054688 194.203125 69.691406 195.371094 C 72.625 195.882812 75.511719 196.753906 78.34375 197.703125 C 80.507812 198.429688 82.078125 200.054688 81.832031 202.5 C 81.582031 205.0625 79.640625 206.363281 77.308594 206.785156 C 73.683594 207.433594 70.152344 206.976562 66.9375 205.035156 C 60.300781 201.023438 55.734375 194.984375 51.339844 188.800781 C 50.84375 188.089844 50.710938 187.113281 50.121094 185.476562 Z M 50.121094 185.476562 " fill-opacity="1" fill-rule="nonzero"/><path fill="#000000" d="M 65.964844 67.539062 C 58.929688 62.558594 51.832031 57.664062 44.921875 52.515625 C 43.792969 51.671875 42.847656 49.722656 42.890625 48.316406 C 42.996094 44.660156 45.902344 43.191406 49.070312 45.082031 C 51.207031 46.355469 53.535156 47.71875 55.003906 49.640625 C 59.195312 55.109375 63 60.890625 66.953125 66.554688 C 66.617188 66.878906 66.292969 67.207031 65.964844 67.539062 Z M 65.964844 67.539062 " fill-opacity="1" fill-rule="nonzero"/><path fill="#000000" d="M 81.378906 74.375 C 81.195312 79.066406 78.6875 81.75 74.566406 81.667969 C 70.628906 81.582031 68.078125 78.304688 68.191406 73.472656 C 68.289062 69.394531 70.820312 66.96875 74.863281 67.066406 C 78.925781 67.171875 81.539062 70.097656 81.378906 74.375 Z M 81.378906 74.375 " fill-opacity="1" fill-rule="nonzero"/><path fill="#000000" d="M 1016.777344 661.375 C 1017.625 671.496094 1020.816406 681.460938 1018.59375 692.269531 C 1019.238281 691.574219 1019.628906 691.300781 1019.8125 690.921875 C 1026.035156 677.640625 1028.039062 663.886719 1023.226562 649.804688 C 1021.523438 644.820312 1018.046875 640.472656 1015.824219 635.632812 C 1014.234375 632.160156 1013.332031 628.363281 1012.226562 624.683594 C 1011.71875 623.003906 1012.828125 622.214844 1014.257812 621.714844 C 1017.558594 620.554688 1021.367188 621.800781 1023.707031 625.042969 C 1028.773438 632.066406 1030.910156 640.15625 1031.253906 648.628906 C 1031.863281 663.6875 1028.832031 678.070312 1022.089844 691.589844 C 1021.214844 693.339844 1020.554688 695.414062 1017.886719 695.476562 C 1017.339844 695.492188 1016.828125 696.941406 1016.300781 697.722656 C 1012.777344 702.925781 1009.882812 708.742188 1005.597656 713.207031 C 997.75 721.386719 984.722656 721.800781 976.019531 715.09375 C 969.511719 710.078125 968.988281 700.273438 974.921875 694.570312 C 977.800781 691.800781 982.984375 691.195312 986.601562 693.207031 C 989.648438 694.902344 991.773438 699.65625 990.539062 703.375 C 989.972656 705.085938 988.359375 706.992188 986.75 707.660156 C 984.589844 708.550781 981.929688 708.488281 980.050781 706.324219 C 979.488281 705.675781 979 704.972656 978.429688 704.242188 C 977.511719 707.765625 979.847656 711.5 983.714844 712.441406 C 989.710938 713.902344 995.128906 712.738281 999.464844 708.117188 C 1008.929688 698.023438 1010.128906 673.765625 995.71875 663.535156 C 991.457031 660.507812 986.847656 658.773438 981.535156 659.40625 C 974.492188 660.242188 969.308594 667.464844 971.621094 673.324219 C 972.046875 674.414062 972.847656 675.355469 973.554688 676.496094 C 973.953125 676.050781 974.15625 675.925781 974.183594 675.769531 C 974.621094 673.332031 974.976562 670.832031 978.144531 670.460938 C 981.074219 670.109375 984.679688 672.105469 986.132812 674.863281 C 987.492188 677.453125 987.035156 680.828125 985.023438 683.027344 C 982.0625 686.269531 978.3125 686.53125 974.558594 685.214844 C 964.84375 681.8125 961.265625 673.632812 964.808594 663.007812 C 967.84375 653.917969 976.257812 648.945312 986.390625 649.792969 C 987.054688 649.847656 987.730469 649.890625 988.492188 649.9375 C 988.78125 646.660156 989.0625 643.453125 989.410156 639.445312 C 993.992188 644.292969 997.824219 648.554688 1001.890625 652.582031 C 1006.058594 656.71875 1009.773438 661.101562 1011.277344 666.957031 C 1013.277344 664.996094 1015.0625 663.246094 1016.847656 661.492188 Z M 1016.777344 661.375 " fill-opacity="1" fill-rule="nonzero"/><path fill="#000000" d="M 932.773438 685.976562 C 933.609375 685.777344 934.492188 685.703125 935.261719 685.363281 C 936.488281 684.828125 938.484375 684.292969 938.652344 683.457031 C 939.046875 681.507812 939.765625 679.546875 937.777344 677.382812 C 926.953125 665.636719 916.734375 653.386719 909.890625 638.742188 C 906.988281 632.539062 904.453125 626.160156 905.371094 619.089844 C 905.652344 616.925781 906.34375 614.695312 907.347656 612.761719 C 909.429688 608.753906 914.535156 608.226562 917.617188 611.550781 C 920.96875 615.167969 921.878906 619.761719 922.523438 624.421875 C 923.617188 632.328125 924.226562 640.324219 925.84375 648.117188 C 928.007812 658.527344 932.59375 667.972656 939.144531 676.410156 C 940.171875 677.734375 940.9375 678.414062 942.710938 677.710938 C 943.753906 677.296875 945.085938 677.636719 946.570312 677.636719 C 940.945312 671.71875 936.929688 664.890625 934.210938 657.324219 C 930.292969 646.40625 927.742188 635.246094 929.621094 623.558594 C 929.992188 621.222656 930.960938 618.882812 932.128906 616.804688 C 933.726562 613.964844 936.164062 613.167969 939.066406 613.964844 C 942.242188 614.828125 944.097656 616.695312 943.839844 620.046875 C 943.375 626.039062 942.890625 632.109375 941.496094 637.925781 C 938.414062 650.804688 940.480469 662.773438 946.136719 674.484375 C 947.375 677.058594 947.628906 680.117188 948.292969 682.957031 C 948.664062 684.554688 948.734375 686.265625 949.367188 687.742188 C 949.652344 688.421875 950.96875 688.65625 951.820312 689.097656 C 952.050781 688.246094 952.625 687.324219 952.457031 686.558594 C 952.027344 684.578125 950.488281 682.515625 950.816406 680.75 C 951.433594 677.429688 949.359375 675.300781 948.53125 672.621094 C 944.71875 660.367188 943.003906 648.011719 948.855469 635.921875 C 950.128906 633.292969 952.546875 630.898438 955.011719 629.28125 C 956.449219 628.339844 959.203125 628.699219 961.003906 629.410156 C 961.734375 629.699219 962.078125 632.679688 961.578125 634.070312 C 959.882812 638.796875 957.800781 643.390625 955.722656 647.976562 C 954.074219 651.597656 951.671875 654.96875 950.621094 658.730469 C 949.605469 662.367188 949.429688 666.402344 949.695312 670.207031 C 950.019531 674.90625 951.441406 675.769531 957.3125 676.136719 C 956.535156 674.714844 956.097656 673.476562 955.285156 672.585938 C 954.46875 671.683594 953.269531 671.128906 952.535156 670.128906 C 958.132812 669.8125 961.296875 673.105469 962.378906 676.609375 C 964.550781 683.65625 962.316406 692.734375 956.679688 694.835938 C 952.40625 696.433594 950.738281 698.910156 948.988281 702.707031 C 946.234375 708.679688 937.355469 711.21875 930.621094 708.902344 C 926.707031 707.558594 923.351562 705.753906 922.425781 701.019531 C 924.941406 701.425781 927.316406 701.808594 930.386719 702.304688 C 929.417969 700.121094 928.816406 698.753906 928.113281 697.160156 C 932.214844 695.703125 936.039062 696.152344 939.871094 697.347656 C 940.609375 697.578125 941.363281 697.996094 942.070312 697.925781 C 942.597656 697.875 943.3125 697.242188 943.460938 696.730469 C 943.566406 696.363281 942.984375 695.476562 942.527344 695.316406 C 940.886719 694.730469 939.199219 694.226562 937.488281 693.929688 C 932.386719 693.042969 931.226562 691.128906 932.800781 685.960938 Z M 932.773438 685.976562 " fill-opacity="1" fill-rule="nonzero"/><path fill="#000000" d="M 921.171875 765.476562 C 925.277344 765.476562 929.390625 765.476562 933.496094 765.476562 C 933.558594 765.78125 933.613281 766.089844 933.679688 766.390625 C 932.320312 766.800781 930.980469 767.320312 929.59375 767.59375 C 912.546875 770.933594 898.363281 760.316406 891.484375 749.84375 C 889.402344 746.679688 887.554688 743.351562 885.753906 740.011719 C 883.40625 735.648438 880.1875 732.332031 875.507812 730.53125 C 874.925781 730.304688 874.441406 729.796875 873.75 729.304688 C 877.941406 726.445312 881.855469 727.824219 885.890625 729.441406 C 888.015625 725.242188 889.394531 720.550781 893.851562 718.207031 C 895.421875 717.378906 897.179688 716.921875 899.242188 716.625 C 894.417969 722.96875 891.988281 729.742188 893.566406 737.121094 C 897.039062 736.488281 900.523438 735.847656 903.738281 735.261719 C 903.738281 732.660156 903.339844 729.550781 903.816406 726.585938 C 905.21875 717.828125 914.457031 710.042969 923.300781 709.675781 C 934.21875 709.226562 938.023438 715.253906 939.332031 724.234375 C 939.808594 727.492188 938.476562 729.925781 935.605469 731.5 C 932.570312 733.160156 929.230469 733.601562 926.53125 731.515625 C 925.046875 730.367188 924.167969 727.773438 924 725.746094 C 923.804688 723.390625 925.101562 721.238281 927.597656 720.269531 C 928.304688 719.996094 929.03125 719.769531 929.753906 719.523438 C 929.867188 719.234375 929.976562 718.953125 930.089844 718.664062 C 928.667969 717.976562 927.316406 716.929688 925.816406 716.667969 C 920.09375 715.664062 913.996094 720.726562 913.785156 726.632812 C 913.484375 735.128906 916.707031 741.910156 924.269531 746.058594 C 936.207031 752.605469 948.378906 753.015625 960.277344 746.109375 C 968.460938 741.355469 969.859375 730.734375 963.535156 724.664062 C 961.144531 722.378906 959.0625 722.082031 956.050781 723.820312 C 959.105469 725.066406 961.191406 727.078125 961.585938 730.3125 C 961.972656 733.496094 960.210938 736.402344 957.71875 737.097656 C 954.003906 738.125 949.414062 736.121094 947.769531 732.765625 C 944.867188 726.835938 948.804688 716.394531 957.640625 716.476562 C 963.5 716.535156 967.710938 718.960938 970.707031 723.730469 C 976.300781 732.617188 973.9375 744.695312 965.265625 752.515625 C 958.875 758.273438 951.160156 761.003906 942.882812 762.207031 C 936.753906 763.101562 930.539062 763.453125 924.367188 764.0625 C 923.257812 764.167969 922.160156 764.335938 921.058594 764.476562 C 921.09375 764.792969 921.128906 765.132812 921.171875 765.476562 Z M 893.769531 738.890625 C 897.636719 750.785156 904.292969 759.34375 915.664062 763.667969 C 916.390625 763.945312 917.722656 763.808594 918.214844 763.3125 C 919.859375 761.628906 921.25 759.695312 922.578125 758.050781 C 919.832031 756.726562 916.964844 755.828125 914.695312 754.125 C 911.53125 751.753906 908.71875 748.878906 905.925781 746.050781 C 902.632812 742.746094 898.925781 740.261719 893.769531 738.890625 Z M 893.769531 738.890625 " fill-opacity="1" fill-rule="nonzero"/><path fill="#000000" d="M 772.929688 750.152344 C 768.859375 749.800781 764.792969 749.449219 760.722656 749.097656 C 760.667969 748.753906 760.605469 748.414062 760.546875 748.070312 C 762.648438 746.3125 764.785156 744.601562 766.839844 742.796875 C 770.335938 739.707031 773.691406 736.464844 777.246094 733.457031 C 781.589844 729.769531 786.859375 728.25 793.011719 727.667969 C 789.210938 724.503906 784.054688 723.300781 783.417969 716.878906 C 788.714844 720.03125 793.863281 719.707031 799.078125 719.59375 C 804.773438 719.464844 810.554688 719.4375 816.175781 720.234375 C 826.257812 721.660156 835.386719 725.746094 843.183594 732.386719 C 845.945312 734.734375 848.160156 737.730469 850.617188 740.433594 C 850.445312 740.652344 850.261719 740.867188 850.085938 741.085938 C 849.625 740.925781 849.085938 740.867188 848.71875 740.582031 C 840.558594 734.144531 830.964844 732.070312 820.929688 731.613281 C 810.386719 731.140625 800.242188 732.886719 790.816406 737.957031 C 782.765625 742.296875 778.855469 749.441406 777.558594 758.128906 C 776.628906 764.351562 780.839844 768.882812 786.480469 768.5 C 785.988281 766.714844 785.050781 764.886719 785.09375 763.085938 C 785.167969 760.089844 786.960938 758.070312 789.976562 757.304688 C 792.835938 756.582031 796.476562 757.875 798.300781 760.285156 C 801.472656 764.492188 800.941406 769.929688 796.988281 773.710938 C 789.015625 781.335938 775.429688 778.128906 771.679688 767.542969 C 770.574219 764.421875 770.441406 760.960938 769.78125 757.214844 C 768.992188 758.339844 768.28125 759.40625 767.503906 760.425781 C 758.425781 772.292969 747.796875 777.019531 734.054688 773.921875 C 728.609375 772.699219 724.203125 769.941406 723.074219 764.019531 C 722.765625 762.398438 723.449219 760.140625 724.492188 758.816406 C 725.851562 757.09375 728.148438 757.214844 730.117188 758.28125 C 731.820312 759.210938 733.53125 760.160156 735.105469 761.277344 C 743.6875 767.382812 752.488281 767.011719 760.960938 761.480469 C 765.507812 758.515625 769.375 754.503906 773.550781 750.96875 C 773.347656 750.699219 773.140625 750.425781 772.929688 750.152344 Z M 772.929688 750.152344 " fill-opacity="1" fill-rule="nonzero"/><g clip-path="url(#5fbc4d31d5)"><path fill="#000000" d="M 1034.171875 744.636719 C 1032.144531 748.203125 1029.167969 749.925781 1025.496094 750.546875 C 1021.1875 751.269531 1017.199219 750.417969 1013.65625 747.753906 C 1013.191406 747.402344 1012.757812 746.964844 1012.234375 746.75 C 1011.035156 746.25 1009.800781 745.832031 1008.546875 745.503906 C 1008.492188 745.488281 1007.785156 746.796875 1007.988281 747.148438 C 1008.757812 748.511719 1009.5625 750.011719 1010.761719 750.941406 C 1011.652344 751.628906 1013.15625 751.59375 1014.398438 751.761719 C 1021.46875 752.734375 1026.085938 756.523438 1028.039062 763.5 C 1029.433594 768.464844 1030.933594 773.394531 1032.539062 778.875 C 1025.363281 776.933594 1017.90625 776.835938 1011.980469 772.574219 C 1009.457031 770.757812 1008.105469 767.191406 1006.480469 764.273438 C 1005.449219 762.425781 1004.945312 760.292969 1004.113281 758.324219 C 1003.152344 756.074219 1001.296875 755.355469 998.472656 755.371094 C 999.144531 756.722656 999.71875 757.683594 1000.117188 758.726562 C 1001.429688 762.15625 1003.074219 765.535156 1003.832031 769.09375 C 1004.898438 774.078125 1003.003906 777.339844 998.492188 779.921875 C 998.351562 779.804688 998.085938 779.675781 998.085938 779.558594 C 998.210938 771.707031 992.550781 767.867188 987.359375 763.570312 C 984.933594 761.566406 982.683594 759.183594 980.933594 756.574219 C 979.210938 754.007812 978.675781 750.765625 980.613281 748.007812 C 982.699219 745.023438 986 744.40625 989.453125 744.660156 C 990.300781 744.722656 991.136719 745.003906 991.207031 745.019531 C 993.636719 742.753906 995.660156 740.863281 997.847656 738.828125 C 997.847656 736.972656 997.390625 734.566406 997.945312 732.421875 C 999.089844 727.992188 1003.199219 725.847656 1007.71875 726.746094 C 1011.820312 727.5625 1014.496094 730.324219 1017.003906 733.363281 C 1018.796875 735.539062 1020.625 737.683594 1022.421875 739.855469 C 1024.914062 742.871094 1027.886719 744.800781 1032.019531 744.152344 C 1032.398438 744.097656 1032.796875 744.160156 1033.183594 744.210938 C 1033.351562 744.230469 1033.519531 744.351562 1034.171875 744.636719 Z M 1034.171875 744.636719 " fill-opacity="1" fill-rule="nonzero"/></g><path fill="#000000" d="M 868.835938 764.675781 C 869.675781 768.558594 868.644531 771.597656 864.945312 772.855469 C 863.054688 773.5 860.644531 774 858.886719 773.382812 C 856.140625 772.410156 853.503906 770.730469 851.269531 768.8125 C 847.886719 765.90625 845.125 762.261719 841.664062 759.484375 C 839.019531 757.367188 835.859375 755.460938 832.632812 754.617188 C 827.304688 753.226562 822.210938 758.097656 822.445312 763.664062 C 822.589844 767.15625 825.265625 768.472656 828.007812 769.800781 C 824.679688 771.265625 821.253906 769.191406 819.976562 765.132812 C 818.058594 759.042969 821.539062 751.777344 828.019531 749.660156 C 831.683594 748.464844 835.734375 748.449219 839.933594 747.859375 C 839.933594 746.453125 839.933594 744.566406 839.933594 742.375 C 844.4375 743.894531 848.664062 745.207031 852.796875 746.785156 C 853.867188 747.191406 854.777344 748.308594 855.507812 749.285156 C 856.78125 750.996094 857.679688 753.023438 859.089844 754.597656 C 860.40625 756.074219 862.023438 757.472656 863.789062 758.296875 C 866.605469 759.613281 870.136719 757.972656 871.363281 755.222656 C 872.632812 752.382812 871.792969 749.800781 868.632812 748.210938 C 866.585938 747.183594 864.289062 746.609375 862.050781 746.03125 C 857.316406 744.800781 853.054688 743.070312 850.875 738.117188 C 850.195312 736.578125 848.832031 735.332031 847.5625 733.667969 C 849.355469 732.949219 850.933594 732.316406 852.636719 731.632812 C 852.488281 731.085938 852.472656 730.578125 852.242188 730.199219 C 847.007812 721.597656 854.070312 712.632812 861.394531 711.042969 C 866.59375 709.917969 869.871094 711.738281 871.125 716.113281 C 869.113281 715.394531 866.675781 713.9375 864.140625 713.75 C 859.707031 713.425781 856.679688 717.34375 857.335938 721.84375 C 857.785156 724.882812 859.179688 727.457031 861.847656 728.996094 C 864.183594 730.347656 866.710938 731.375 869.199219 732.441406 C 871.960938 733.632812 874.839844 734.539062 877.539062 735.855469 C 882.652344 738.34375 884.515625 742.339844 883.066406 747.59375 C 882.695312 748.933594 881.953125 750.875 880.941406 751.214844 C 878 752.183594 877.683594 754.457031 877.234375 756.832031 C 876.378906 761.390625 873.675781 764.054688 868.835938 764.675781 Z M 868.835938 764.675781 " fill-opacity="1" fill-rule="nonzero"/><path fill="#000000" d="M 971.933594 618.15625 C 968.929688 619.773438 966.644531 619.296875 964.753906 617.257812 C 961.445312 613.691406 960.289062 609.414062 962.035156 604.835938 C 963.757812 600.3125 967.449219 598.175781 972.222656 597.839844 C 976.78125 597.515625 981.078125 598.378906 985.226562 600.945312 C 985.464844 598.035156 985.679688 595.410156 985.917969 592.585938 C 992.546875 597.070312 999.230469 600.941406 1000.914062 609.414062 C 1001.257812 611.152344 1002.40625 612.796875 1003.4375 614.300781 C 1004.867188 616.382812 1006.917969 616.898438 1009.328125 616.046875 C 1011.710938 615.203125 1012.628906 613.5 1012.425781 611.066406 C 1012.160156 607.9375 1011.277344 604.890625 1008.472656 603.304688 C 1002.734375 600.054688 998.644531 595.546875 996.261719 589.390625 C 995.820312 588.257812 994.917969 587.304688 993.984375 585.910156 C 997.285156 585.910156 1000.28125 585.910156 1003.5625 585.910156 C 1003.28125 584.117188 1002.792969 582.511719 1002.820312 580.925781 C 1002.890625 577.554688 1002.757812 574.066406 1003.570312 570.84375 C 1005.003906 565.15625 1011.1875 561.574219 1016.960938 562.484375 C 1022.429688 563.347656 1026.171875 570.183594 1023.277344 574.832031 C 1022.914062 573.167969 1022.640625 571.789062 1022.304688 570.429688 C 1021.351562 566.546875 1019.171875 564.15625 1016.46875 563.972656 C 1012.628906 563.722656 1008.570312 566.332031 1007.414062 570.007812 C 1005.398438 576.4375 1007.898438 581.695312 1012.167969 586.210938 C 1015.296875 589.523438 1018.824219 592.457031 1022.214844 595.515625 C 1026.640625 599.519531 1028.4375 604.34375 1026.894531 610.230469 C 1025.898438 614.027344 1023.285156 615.960938 1019.390625 616.285156 C 1018.410156 616.363281 1017.246094 617.101562 1016.59375 617.890625 C 1014.757812 620.125 1012.769531 621.890625 1009.832031 622.585938 C 1008.804688 622.832031 1007.710938 623.859375 1007.136719 624.824219 C 1004.121094 629.878906 998.328125 630.871094 994.167969 626.644531 C 992.148438 624.59375 990.535156 622.101562 988.945312 619.667969 C 986.128906 615.355469 983.71875 610.757812 980.691406 606.609375 C 977.089844 601.671875 970.394531 600.855469 966.308594 604.351562 C 963.828125 606.46875 962.992188 609.035156 963.722656 612.183594 C 964.445312 615.300781 966.496094 616.980469 969.488281 617.65625 C 970.160156 617.804688 970.8125 617.925781 971.933594 618.15625 Z M 971.933594 618.15625 " fill-opacity="1" fill-rule="nonzero"/><path fill="#000000" d="M 1000.222656 502.652344 C 1003.179688 505.671875 1003.507812 508.140625 1002.378906 517.902344 C 1003.5625 517.597656 1004.628906 517.316406 1005.695312 517.0625 C 1010.90625 515.828125 1016.070312 515.609375 1021.046875 518.019531 C 1027.503906 521.148438 1030.558594 528.832031 1028.003906 535.574219 C 1026.8125 538.710938 1024.640625 540.878906 1021.207031 541.203125 C 1017.597656 541.546875 1014.472656 540.425781 1012.40625 537.21875 C 1010.472656 534.21875 1011.195312 531.382812 1014.296875 529.582031 C 1015.292969 529.007812 1016.335938 528.515625 1017.375 527.972656 C 1014.304688 523.746094 1008.550781 522.480469 1003.011719 525.03125 C 994.441406 528.976562 989.144531 535.914062 986.601562 544.816406 C 982.066406 560.691406 984.21875 575.824219 992.394531 590.121094 C 992.921875 591.042969 993.472656 591.957031 993.523438 593.398438 C 991.246094 591.199219 988.78125 589.152344 986.710938 586.761719 C 975.789062 574.09375 971.011719 559.28125 971.59375 542.585938 C 971.761719 537.777344 972.371094 532.839844 969.539062 528.015625 C 972.550781 527.894531 974.464844 529.324219 976.0625 531.050781 C 977.652344 532.777344 978.933594 534.792969 980.582031 536.988281 C 981.183594 530.53125 984.464844 525.699219 988.210938 521.074219 C 992.84375 515.398438 998.085938 510.121094 1000.222656 502.652344 Z M 1000.222656 502.652344 " fill-opacity="1" fill-rule="nonzero"/><path fill="#000000" d="M 936.449219 682.886719 C 922.042969 669.109375 904.183594 660.1875 888.957031 647.738281 C 885.539062 644.945312 882.386719 641.6875 879.683594 638.195312 C 878.105469 636.152344 877.363281 633.300781 876.765625 630.6875 C 875.421875 624.851562 878.511719 623.25 883.808594 623.523438 C 888.539062 623.769531 892.652344 626.125 895.613281 629.738281 C 900.28125 635.4375 904.730469 641.335938 908.914062 647.398438 C 916.859375 658.921875 924.691406 670.503906 934.777344 680.320312 C 935.257812 680.792969 935.671875 681.339844 936.058594 681.890625 C 936.261719 682.179688 936.324219 682.558594 936.449219 682.886719 Z M 936.449219 682.886719 " fill-opacity="1" fill-rule="nonzero"/><path fill="#000000" d="M 932.816406 685.925781 C 931.914062 685.871094 930.707031 686.171875 930.148438 685.707031 C 916.527344 674.441406 900.734375 669.742188 883.292969 669.589844 C 878.886719 669.554688 874.453125 668.851562 870.085938 668.125 C 868.566406 667.871094 867.03125 666.839844 865.796875 665.804688 C 862.148438 662.753906 862.4375 657.253906 866.578125 654.972656 C 868.777344 653.765625 871.488281 653.082031 874.011719 652.933594 C 883.105469 652.402344 891.359375 655.367188 899.214844 659.707031 C 911.796875 666.664062 922.601562 675.898438 932.761719 685.976562 C 932.777344 685.976562 932.816406 685.925781 932.816406 685.925781 Z M 932.816406 685.925781 " fill-opacity="1" fill-rule="nonzero"/><path fill="#000000" d="M 929.414062 689.765625 C 924.59375 688.796875 919.78125 687.789062 914.945312 686.863281 C 906.414062 685.222656 898.171875 687.199219 889.898438 688.902344 C 886.199219 689.660156 882.457031 690.441406 878.707031 690.632812 C 876.074219 690.773438 873.285156 690.257812 870.742188 689.464844 C 867.300781 688.382812 866.269531 685.046875 868.113281 681.933594 C 870.539062 677.824219 874.59375 676.25 878.917969 675.222656 C 885.574219 673.632812 892.246094 674.214844 898.851562 675.484375 C 909.171875 677.464844 918.625 681.652344 927.390625 687.417969 C 928.238281 687.980469 929 688.675781 929.808594 689.308594 C 929.675781 689.464844 929.542969 689.613281 929.414062 689.765625 Z M 929.414062 689.765625 " fill-opacity="1" fill-rule="nonzero"/><path fill="#000000" d="M 1032.90625 704.234375 C 1033.21875 707.988281 1031.25 710.730469 1026.964844 713.890625 C 1027.867188 714.269531 1028.960938 714.4375 1029.640625 715.058594 C 1033.332031 718.441406 1034.453125 722.625 1033.332031 727.519531 C 1032.730469 730.136719 1030.839844 731.171875 1028.582031 731.605469 C 1025.527344 732.203125 1022.789062 731.417969 1020.761719 728.898438 C 1019.226562 726.984375 1019.507812 724.855469 1020.488281 722.855469 C 1020.820312 722.1875 1021.714844 721.660156 1022.464844 721.371094 C 1023.585938 720.9375 1024.8125 720.753906 1026.269531 720.402344 C 1024.53125 718.222656 1022.691406 716.613281 1020.042969 717.246094 C 1015.625 718.300781 1011.304688 719.707031 1006.925781 720.894531 C 1002.917969 721.976562 998.921875 723.171875 994.84375 723.925781 C 991.671875 724.507812 988.6875 723.414062 986.042969 721.402344 C 988.222656 721.527344 990.402344 721.765625 992.582031 721.753906 C 998.847656 721.710938 1003.960938 718.695312 1008.558594 714.867188 C 1012.796875 711.335938 1017.589844 709.480469 1022.886719 708.261719 C 1026.257812 707.484375 1029.402344 705.683594 1032.90625 704.234375 Z M 1032.90625 704.234375 " fill-opacity="1" fill-rule="nonzero"/><path fill="#000000" d="M 1016.84375 661.472656 C 1013.742188 651.28125 1001.164062 636.695312 985.628906 637.820312 C 983.039062 638.011719 980.496094 639.3125 978.015625 640.324219 C 976.71875 640.851562 975.605469 641.851562 974.292969 642.714844 C 974.042969 638.234375 975.933594 636.203125 984.382812 631.320312 C 983.960938 627.574219 983.5625 624.027344 983.164062 620.484375 C 983.484375 620.386719 983.816406 620.289062 984.136719 620.1875 C 984.566406 620.476562 985.167969 620.660156 985.390625 621.0625 C 988.488281 626.597656 993.324219 630.324219 998.464844 633.683594 C 1006.820312 639.148438 1013.734375 645.972656 1018.554688 654.785156 C 1021.636719 660.433594 1022.988281 666.601562 1023.332031 672.980469 C 1023.417969 674.582031 1023.023438 676.214844 1022.84375 677.886719 C 1020.78125 672.261719 1018.785156 666.824219 1016.789062 661.382812 C 1016.773438 661.375 1016.84375 661.472656 1016.84375 661.472656 Z M 1016.84375 661.472656 " fill-opacity="1" fill-rule="nonzero"/><path fill="#000000" d="M 976.855469 732.324219 C 979.195312 735.53125 979.691406 738.957031 978.664062 742.394531 C 976.941406 748.160156 974.886719 753.824219 973.039062 759.554688 C 971.628906 763.910156 972.078125 767.929688 975.550781 771.6875 C 976.175781 770.625 976.644531 769.71875 977.210938 768.886719 C 979.042969 766.222656 981.011719 765.890625 983.617188 767.761719 C 986.671875 769.949219 987.703125 774.261719 985.824219 777.046875 C 983.53125 780.449219 977.878906 781.476562 974.359375 778.875 C 972.519531 777.511719 971.054688 775.640625 969.695312 774.28125 C 966.210938 775.464844 962.941406 776.574219 959.660156 777.691406 C 959.515625 777.410156 959.367188 777.125 959.21875 776.84375 C 959.578125 776.351562 959.996094 775.886719 960.285156 775.351562 C 961.308594 773.4375 963.015625 771.546875 963.144531 769.5625 C 963.535156 763.542969 965.820312 758.464844 969.457031 753.871094 C 974.4375 747.585938 978.910156 741.136719 976.855469 732.324219 Z M 976.855469 732.324219 " fill-opacity="1" fill-rule="nonzero"/><path fill="#000000" d="M 929.988281 694.429688 C 928.90625 694.554688 927.820312 694.816406 926.742188 694.773438 C 916.371094 694.378906 907.101562 697.390625 898.757812 703.566406 C 894.980469 706.363281 890.945312 708.628906 885.886719 707.890625 C 883.777344 707.582031 882.910156 706.765625 882.9375 704.527344 C 883 699.902344 885.464844 696.835938 889.109375 694.640625 C 894.210938 691.566406 899.921875 690.527344 905.792969 690.1875 C 913.417969 689.746094 920.878906 690.695312 928.199219 692.789062 C 928.867188 692.980469 929.453125 693.464844 930.078125 693.816406 C 930.050781 694.023438 930.015625 694.226562 929.988281 694.429688 Z M 929.988281 694.429688 " fill-opacity="1" fill-rule="nonzero"/><g clip-path="url(#c3fe866363)"><path fill="#000000" d="M 1007.660156 513.0625 C 1008.660156 511.902344 1009.683594 510.761719 1010.671875 509.585938 C 1016.96875 502.132812 1019.386719 493.953125 1015.75 484.410156 C 1014.691406 481.632812 1014.035156 478.613281 1013.734375 475.648438 C 1013.503906 473.417969 1013.566406 470.722656 1016.429688 469.835938 C 1019.113281 469.007812 1021.734375 470.28125 1023.234375 473.058594 C 1026.570312 479.242188 1026.632812 485.878906 1024.894531 492.386719 C 1022.539062 501.191406 1017.003906 507.878906 1009.558594 513 C 1009.121094 513.300781 1008.554688 513.40625 1008.050781 513.605469 C 1007.917969 513.429688 1007.792969 513.246094 1007.660156 513.0625 Z M 1007.660156 513.0625 " fill-opacity="1" fill-rule="nonzero"/></g><path fill="#000000" d="M 842.570312 741.21875 C 841.625 741.21875 840.621094 741.417969 839.734375 741.191406 C 829.074219 738.421875 820.375 741.65625 812.777344 749.355469 C 810.9375 751.226562 808.011719 752.121094 805.457031 753.148438 C 803.65625 753.871094 802.527344 752.761719 802.171875 750.910156 C 801.492188 747.402344 802.519531 744.265625 805.429688 742.449219 C 808.582031 740.480469 812.054688 738.640625 815.636719 737.832031 C 823.785156 735.988281 832.011719 736.207031 840.007812 739.066406 C 840.953125 739.40625 841.8125 739.96875 842.71875 740.417969 C 842.683594 740.691406 842.628906 740.953125 842.570312 741.21875 Z M 842.570312 741.21875 " fill-opacity="1" fill-rule="nonzero"/><path fill="#000000" d="M 849.632812 729.6875 C 848.070312 728.890625 846.480469 728.160156 844.957031 727.289062 C 837.832031 723.195312 830.988281 718.757812 827.996094 710.507812 C 827.21875 708.355469 826.683594 706.007812 826.621094 703.734375 C 826.523438 700.15625 829.265625 698.324219 832.507812 699.832031 C 834.140625 700.589844 835.890625 701.988281 836.664062 703.566406 C 838.226562 706.757812 839.296875 710.21875 840.328125 713.644531 C 841.972656 719.109375 843.753906 724.417969 849.042969 727.570312 C 849.492188 727.835938 849.773438 728.386719 850.128906 728.800781 C 849.960938 729.089844 849.792969 729.382812 849.632812 729.6875 Z M 849.632812 729.6875 " fill-opacity="1" fill-rule="nonzero"/><path fill="#000000" d="M 994.867188 583.546875 C 993.683594 580.058594 992.40625 577.324219 991.839844 574.441406 C 990.410156 567.203125 990.292969 559.9375 993.113281 552.9375 C 994.789062 548.78125 997.472656 545.648438 1002.238281 544.894531 C 1004.480469 544.542969 1005.9375 545.570312 1005.601562 547.636719 C 1005.203125 550.113281 1004.625 553.03125 1003.042969 554.769531 C 995.820312 562.703125 994.128906 571.929688 995.644531 582.132812 C 995.671875 582.273438 995.484375 582.441406 994.867188 583.546875 Z M 994.867188 583.546875 " fill-opacity="1" fill-rule="nonzero"/><path fill="#000000" d="M 984.871094 596.015625 C 983.714844 595.152344 983.148438 594.898438 982.839844 594.460938 C 978.542969 588.371094 971.9375 587.289062 965.300781 586.121094 C 962.367188 585.609375 959.480469 584.734375 956.648438 583.785156 C 954.484375 583.0625 952.914062 581.4375 953.160156 578.988281 C 953.410156 576.429688 955.351562 575.128906 957.683594 574.707031 C 961.308594 574.058594 964.839844 574.515625 968.054688 576.457031 C 974.691406 580.464844 979.257812 586.507812 983.652344 592.691406 C 984.148438 593.398438 984.28125 594.378906 984.871094 596.015625 Z M 984.871094 596.015625 " fill-opacity="1" fill-rule="nonzero"/><path fill="#000000" d="M 969.027344 713.953125 C 976.0625 718.933594 983.160156 723.828125 990.070312 728.976562 C 991.199219 729.820312 992.144531 731.769531 992.101562 733.175781 C 991.996094 736.832031 989.089844 738.300781 985.921875 736.410156 C 983.785156 735.136719 981.457031 733.773438 979.988281 731.851562 C 975.796875 726.378906 971.992188 720.597656 968.039062 714.9375 C 968.375 714.613281 968.699219 714.285156 969.027344 713.953125 Z M 969.027344 713.953125 " fill-opacity="1" fill-rule="nonzero"/><path fill="#000000" d="M 953.613281 707.117188 C 953.796875 702.425781 956.304688 699.738281 960.425781 699.824219 C 964.363281 699.910156 966.914062 703.1875 966.800781 708.015625 C 966.703125 712.097656 964.171875 714.523438 960.128906 714.425781 C 956.066406 714.320312 953.453125 711.394531 953.613281 707.117188 Z M 953.613281 707.117188 " fill-opacity="1" fill-rule="nonzero"/></svg>